solid Pegboard
facet normal -1.0369452043064351e-16 0.9962636876198582 -0.08636356135594392
  outer loop
    vertex 970.7999996185288 -2.424999952316314 32.59500122070312
    vertex 974.7999996185288 -2.3970000743866233 32.917999267578125
    vertex 974.7999996185288 -2.424999952316314 32.59500122070312
  endloop
endfacet
facet normal -1.0369452043064351e-16 0.9962636876198582 -0.08636356135594392
  outer loop
    vertex 974.7999996185288 -2.3970000743866233 32.917999267578125
    vertex 970.7999996185288 -2.424999952316314 32.59500122070312
    vertex 970.7999996185288 -2.3970000743866233 32.917999267578125
  endloop
endfacet
facet normal 9.38426018871499e-17 -0.9016096146996185 0.43255069377034333
  outer loop
    vertex 970.7999996185288 -4.9450001716614045 33.803001403808594
    vertex 974.7999996185288 -5.182000160217311 33.308998107910156
    vertex 974.7999996185288 -4.9450001716614045 33.803001403808594
  endloop
endfacet
facet normal 9.38426018871499e-17 -0.9016096146996185 0.43255069377034333
  outer loop
    vertex 974.7999996185288 -5.182000160217311 33.308998107910156
    vertex 970.7999996185288 -4.9450001716614045 33.803001403808594
    vertex 970.7999996185288 -5.182000160217311 33.308998107910156
  endloop
endfacet
facet normal -1.0 -1.040834085586084e-16 0.0
  outer loop
    vertex 970.7999996185288 -12.060999870300323 28.90390600472864
    vertex 970.7999996185288 -6.106999874115021 24.71999931335449
    vertex 970.7999996185288 -12.060999870300323 24.384000778198242
  endloop
endfacet
facet normal -1.0 -1.040834085586084e-16 0.0
  outer loop
    vertex 970.7999996185288 -6.106999874115021 24.71999931335449
    vertex 970.7999996185288 -12.060999870300323 28.90390600472864
    vertex 970.7999996185288 -5.426000118255641 24.875
  endloop
endfacet
facet normal -1.0 -1.040834085586084e-16 0.0
  outer loop
    vertex 970.7999996185288 -5.426000118255641 24.875
    vertex 970.7999996185288 -12.060999870300323 28.90390600472864
    vertex 970.7999996185288 -4.796999931335478 25.202999114990234
  endloop
endfacet
facet normal -1.0 -1.040834085586084e-16 0.0
  outer loop
    vertex 970.7999996185288 -4.796999931335478 25.202999114990234
    vertex 970.7999996185288 -12.060999870300323 28.90390600472864
    vertex 970.7999996185288 -4.438000202178982 25.52700042724609
  endloop
endfacet
facet normal -1.0 -1.040834085586084e-16 0.0
  outer loop
    vertex 970.7999996185288 -4.438000202178982 25.52700042724609
    vertex 970.7999996185288 -12.060999870300323 28.90390600472864
    vertex 970.7999996185288 -3.9059998989105487 26.360000610351562
  endloop
endfacet
facet normal -1.0 -1.040834085586084e-16 0.0
  outer loop
    vertex 970.7999996185288 -3.9059998989105487 26.360000610351562
    vertex 970.7999996185288 -12.060999870300323 28.90390600472864
    vertex 970.7999996185288 -3.7509999275207817 26.84099960327148
  endloop
endfacet
facet normal -1.0 -1.040834085586084e-16 0.0
  outer loop
    vertex 970.7999996185288 -3.7509999275207817 26.84099960327148
    vertex 970.7999996185288 -12.060999870300323 28.90390600472864
    vertex 970.7999996185288 -6.156605995069384 28.90390600472864
  endloop
endfacet
facet normal -1.0 -1.040834085586084e-16 0.0
  outer loop
    vertex 970.7999996185288 -3.7509999275207817 26.84099960327148
    vertex 970.7999996185288 -6.156605995069384 28.90390600472864
    vertex 970.7999996185288 -2.424999952316314 32.59500122070312
  endloop
endfacet
facet normal -1.0 -1.040834085586084e-16 0.0
  outer loop
    vertex 970.7999996185288 -2.424999952316314 32.59500122070312
    vertex 970.7999996185288 -6.156605995069384 28.90390600472864
    vertex 970.7999996185288 -5.182000160217311 33.308998107910156
  endloop
endfacet
facet normal -1.0 -1.040834085586084e-16 0.0
  outer loop
    vertex 970.7999996185288 -2.424999952316314 32.59500122070312
    vertex 970.7999996185288 -5.182000160217311 33.308998107910156
    vertex 970.7999996185288 -2.3970000743866233 32.917999267578125
  endloop
endfacet
facet normal -1.0 -1.040834085586084e-16 0.0
  outer loop
    vertex 970.7999996185288 -2.3970000743866233 32.917999267578125
    vertex 970.7999996185288 -5.182000160217311 33.308998107910156
    vertex 970.7999996185288 -2.4769999980926802 33.3390007019043
  endloop
endfacet
facet normal -1.0 -1.040834085586084e-16 0.0
  outer loop
    vertex 970.7999996185288 -2.4769999980926802 33.3390007019043
    vertex 970.7999996185288 -5.182000160217311 33.308998107910156
    vertex 970.7999996185288 -4.9450001716614045 33.803001403808594
  endloop
endfacet
facet normal -1.0 -1.040834085586084e-16 0.0
  outer loop
    vertex 970.7999996185288 -2.4769999980926802 33.3390007019043
    vertex 970.7999996185288 -4.9450001716614045 33.803001403808594
    vertex 970.7999996185288 -2.6889998912811555 33.70199966430663
  endloop
endfacet
facet normal -1.0 -1.040834085586084e-16 0.0
  outer loop
    vertex 970.7999996185288 -2.6889998912811555 33.70199966430663
    vertex 970.7999996185288 -4.9450001716614045 33.803001403808594
    vertex 970.7999996185288 -3.005000114440948 33.959999084472656
  endloop
endfacet
facet normal -1.0 -1.040834085586084e-16 0.0
  outer loop
    vertex 970.7999996185288 -3.005000114440948 33.959999084472656
    vertex 970.7999996185288 -4.9450001716614045 33.803001403808594
    vertex 970.7999996185288 -4.716000080108671 34.028999328613274
  endloop
endfacet
facet normal -1.0 -1.040834085586084e-16 0.0
  outer loop
    vertex 970.7999996185288 -3.005000114440948 33.959999084472656
    vertex 970.7999996185288 -4.716000080108671 34.028999328613274
    vertex 970.7999996185288 -4.231999874115019 34.20800018310547
  endloop
endfacet
facet normal -6.582603307510133e-17 0.6324354091270493 0.774613099090315
  outer loop
    vertex 974.7999996185288 -2.6889998912811555 33.70199966430663
    vertex 970.7999996185288 -3.005000114440948 33.959999084472656
    vertex 974.7999996185288 -3.005000114440948 33.959999084472656
  endloop
endfacet
facet normal -6.582603307510133e-17 0.6324354091270493 0.774613099090315
  outer loop
    vertex 970.7999996185288 -3.005000114440948 33.959999084472656
    vertex 974.7999996185288 -2.6889998912811555 33.70199966430663
    vertex 970.7999996185288 -2.6889998912811555 33.70199966430663
  endloop
endfacet
facet normal 7.311087784322103e-17 -0.7024258607177817 0.7117569179115043
  outer loop
    vertex 974.7999996185288 -4.716000080108671 34.028999328613274
    vertex 970.7999996185288 -4.9450001716614045 33.803001403808594
    vertex 974.7999996185288 -4.9450001716614045 33.803001403808594
  endloop
endfacet
facet normal 7.311087784322103e-17 -0.7024258607177817 0.7117569179115043
  outer loop
    vertex 970.7999996185288 -4.9450001716614045 33.803001403808594
    vertex 974.7999996185288 -4.716000080108671 34.028999328613274
    vertex 970.7999996185288 -4.716000080108671 34.028999328613274
  endloop
endfacet
facet normal -6.97352688086004e-17 0.6699940919914543 -0.7423664302058296
  outer loop
    vertex 970.7999996185288 -4.438000202178982 25.52700042724609
    vertex 974.7999996185288 -4.796999931335478 25.202999114990234
    vertex 970.7999996185288 -4.796999931335478 25.202999114990234
  endloop
endfacet
facet normal -6.97352688086004e-17 0.6699940919914543 -0.7423664302058296
  outer loop
    vertex 974.7999996185288 -4.796999931335478 25.202999114990234
    vertex 970.7999996185288 -4.438000202178982 25.52700042724609
    vertex 974.7999996185288 -4.438000202178982 25.52700042724609
  endloop
endfacet
facet normal -2.0620350639668885e-17 0.1981137140417318 0.9801790429858164
  outer loop
    vertex 974.7999996185288 -3.005000114440948 33.959999084472656
    vertex 970.7999996185288 -4.231999874115019 34.20800018310547
    vertex 974.7999996185288 -4.231999874115019 34.20800018310547
  endloop
endfacet
facet normal -2.0620350639668885e-17 0.1981137140417318 0.9801790429858164
  outer loop
    vertex 970.7999996185288 -4.231999874115019 34.20800018310547
    vertex 974.7999996185288 -3.005000114440948 33.959999084472656
    vertex 970.7999996185288 -3.005000114440948 33.959999084472656
  endloop
endfacet
facet normal 3.610381219418807e-17 -0.34687384564138624 0.9379117950052425
  outer loop
    vertex 974.7999996185288 -4.231999874115019 34.20800018310547
    vertex 970.7999996185288 -4.716000080108671 34.028999328613274
    vertex 974.7999996185288 -4.716000080108671 34.028999328613274
  endloop
endfacet
facet normal 3.610381219418807e-17 -0.34687384564138624 0.9379117950052425
  outer loop
    vertex 970.7999996185288 -4.716000080108671 34.028999328613274
    vertex 974.7999996185288 -4.231999874115019 34.20800018310547
    vertex 970.7999996185288 -4.231999874115019 34.20800018310547
  endloop
endfacet
facet normal -1.0142508371947266e-16 0.974459667722749 -0.22456258811669866
  outer loop
    vertex 970.7999996185288 -3.7509999275207817 26.84099960327148
    vertex 974.7999996185288 -2.424999952316314 32.59500122070312
    vertex 974.7999996185288 -3.7509999275207817 26.84099960327148
  endloop
endfacet
facet normal -1.0142508371947266e-16 0.974459667722749 -0.22456258811669866
  outer loop
    vertex 974.7999996185288 -2.424999952316314 32.59500122070312
    vertex 970.7999996185288 -3.7509999275207817 26.84099960327148
    vertex 970.7999996185288 -2.424999952316314 32.59500122070312
  endloop
endfacet
facet normal -9.906676046870665e-17 0.9518016544675618 -0.30671421641784413
  outer loop
    vertex 970.7999996185288 -3.9059998989105487 26.360000610351562
    vertex 974.7999996185288 -3.7509999275207817 26.84099960327148
    vertex 974.7999996185288 -3.9059998989105487 26.360000610351562
  endloop
endfacet
facet normal -9.906676046870665e-17 0.9518016544675618 -0.30671421641784413
  outer loop
    vertex 974.7999996185288 -3.7509999275207817 26.84099960327148
    vertex 970.7999996185288 -3.9059998989105487 26.360000610351562
    vertex 970.7999996185288 -3.7509999275207817 26.84099960327148
  endloop
endfacet
facet normal -1.0225365569862475e-16 0.9824203214967414 0.18668238243133595
  outer loop
    vertex 970.7999996185288 -2.3970000743866233 32.917999267578125
    vertex 974.7999996185288 -2.4769999980926802 33.3390007019043
    vertex 974.7999996185288 -2.3970000743866233 32.917999267578125
  endloop
endfacet
facet normal -1.0225365569862475e-16 0.9824203214967414 0.18668238243133595
  outer loop
    vertex 974.7999996185288 -2.4769999980926802 33.3390007019043
    vertex 970.7999996185288 -2.3970000743866233 32.917999267578125
    vertex 970.7999996185288 -2.4769999980926802 33.3390007019043
  endloop
endfacet
facet normal -8.987804583822798e-17 0.8635194319911083 0.5043155664598845
  outer loop
    vertex 970.7999996185288 -2.4769999980926802 33.3390007019043
    vertex 974.7999996185288 -2.6889998912811555 33.70199966430663
    vertex 974.7999996185288 -2.4769999980926802 33.3390007019043
  endloop
endfacet
facet normal -8.987804583822798e-17 0.8635194319911083 0.5043155664598845
  outer loop
    vertex 974.7999996185288 -2.6889998912811555 33.70199966430663
    vertex 970.7999996185288 -2.4769999980926802 33.3390007019043
    vertex 970.7999996185288 -2.6889998912811555 33.70199966430663
  endloop
endfacet
facet normal -8.771997901298874e-17 0.8427854182311336 -0.5382496993189808
  outer loop
    vertex 970.7999996185288 -4.438000202178982 25.52700042724609
    vertex 974.7999996185288 -3.9059998989105487 26.360000610351562
    vertex 974.7999996185288 -4.438000202178982 25.52700042724609
  endloop
endfacet
facet normal -8.771997901298874e-17 0.8427854182311336 -0.5382496993189808
  outer loop
    vertex 974.7999996185288 -3.9059998989105487 26.360000610351562
    vertex 970.7999996185288 -4.438000202178982 25.52700042724609
    vertex 970.7999996185288 -3.9059998989105487 26.360000610351562
  endloop
endfacet
facet normal 1.0162585711916802e-16 -0.9763886341399306 0.21602137654028766
  outer loop
    vertex 970.7999996185288 -5.182000160217311 33.308998107910156
    vertex 974.7999996185288 -6.156605995069383 28.90390600472864
    vertex 974.7999996185288 -5.182000160217311 33.308998107910156
  endloop
endfacet
facet normal 1.0162585711916802e-16 -0.9763886341399306 0.21602137654028766
  outer loop
    vertex 974.7999996185288 -6.156605995069383 28.90390600472864
    vertex 970.7999996185288 -5.182000160217311 33.308998107910156
    vertex 970.7999996185288 -6.156605995069384 28.90390600472864
  endloop
endfacet
facet normal 1.0 1.040834085586084e-16 0.0
  outer loop
    vertex 974.7999996185288 -2.424999952316314 32.59500122070312
    vertex 974.7999996185288 -6.156605995069383 28.90390600472864
    vertex 974.7999996185288 -3.7509999275207817 26.84099960327148
  endloop
endfacet
facet normal 1.0 1.040834085586084e-16 0.0
  outer loop
    vertex 974.7999996185288 -6.156605995069383 28.90390600472864
    vertex 974.7999996185288 -2.424999952316314 32.59500122070312
    vertex 974.7999996185288 -5.182000160217311 33.308998107910156
  endloop
endfacet
facet normal 1.0 1.040834085586084e-16 0.0
  outer loop
    vertex 974.7999996185288 -5.182000160217311 33.308998107910156
    vertex 974.7999996185288 -2.424999952316314 32.59500122070312
    vertex 974.7999996185288 -2.3970000743866233 32.917999267578125
  endloop
endfacet
facet normal 1.0 1.040834085586084e-16 0.0
  outer loop
    vertex 974.7999996185288 -5.182000160217311 33.308998107910156
    vertex 974.7999996185288 -2.3970000743866233 32.917999267578125
    vertex 974.7999996185288 -2.4769999980926802 33.3390007019043
  endloop
endfacet
facet normal 1.0 1.040834085586084e-16 0.0
  outer loop
    vertex 974.7999996185288 -5.182000160217311 33.308998107910156
    vertex 974.7999996185288 -2.4769999980926802 33.3390007019043
    vertex 974.7999996185288 -4.9450001716614045 33.803001403808594
  endloop
endfacet
facet normal 1.0 1.040834085586084e-16 0.0
  outer loop
    vertex 974.7999996185288 -4.9450001716614045 33.803001403808594
    vertex 974.7999996185288 -2.4769999980926802 33.3390007019043
    vertex 974.7999996185288 -2.6889998912811555 33.70199966430663
  endloop
endfacet
facet normal 1.0 1.040834085586084e-16 0.0
  outer loop
    vertex 974.7999996185288 -4.9450001716614045 33.803001403808594
    vertex 974.7999996185288 -2.6889998912811555 33.70199966430663
    vertex 974.7999996185288 -3.005000114440948 33.959999084472656
  endloop
endfacet
facet normal 1.0 1.040834085586084e-16 0.0
  outer loop
    vertex 974.7999996185288 -4.9450001716614045 33.803001403808594
    vertex 974.7999996185288 -3.005000114440948 33.959999084472656
    vertex 974.7999996185288 -4.716000080108671 34.028999328613274
  endloop
endfacet
facet normal 1.0 1.040834085586084e-16 0.0
  outer loop
    vertex 974.7999996185288 -4.716000080108671 34.028999328613274
    vertex 974.7999996185288 -3.005000114440948 33.959999084472656
    vertex 974.7999996185288 -4.231999874115019 34.20800018310547
  endloop
endfacet
facet normal 1.0 1.040834085586084e-16 0.0
  outer loop
    vertex 974.7999996185288 -6.106999874115021 24.71999931335449
    vertex 974.7999996185288 -12.060999870300323 28.90390600472864
    vertex 974.7999996185288 -12.060999870300323 24.384000778198242
  endloop
endfacet
facet normal 1.0 1.040834085586084e-16 0.0
  outer loop
    vertex 974.7999996185288 -12.060999870300323 28.90390600472864
    vertex 974.7999996185288 -6.106999874115021 24.71999931335449
    vertex 974.7999996185288 -5.426000118255641 24.875
  endloop
endfacet
facet normal 1.0 1.040834085586084e-16 0.0
  outer loop
    vertex 974.7999996185288 -12.060999870300323 28.90390600472864
    vertex 974.7999996185288 -5.426000118255641 24.875
    vertex 974.7999996185288 -4.796999931335478 25.202999114990234
  endloop
endfacet
facet normal 1.0 1.040834085586084e-16 0.0
  outer loop
    vertex 974.7999996185288 -12.060999870300323 28.90390600472864
    vertex 974.7999996185288 -4.796999931335478 25.202999114990234
    vertex 974.7999996185288 -4.438000202178982 25.52700042724609
  endloop
endfacet
facet normal 1.0 1.040834085586084e-16 0.0
  outer loop
    vertex 974.7999996185288 -12.060999870300323 28.90390600472864
    vertex 974.7999996185288 -4.438000202178982 25.52700042724609
    vertex 974.7999996185288 -3.9059998989105487 26.360000610351562
  endloop
endfacet
facet normal 1.0 1.040834085586084e-16 0.0
  outer loop
    vertex 974.7999996185288 -12.060999870300323 28.90390600472864
    vertex 974.7999996185288 -3.9059998989105487 26.360000610351562
    vertex 974.7999996185288 -3.7509999275207817 26.84099960327148
  endloop
endfacet
facet normal 1.0 1.040834085586084e-16 0.0
  outer loop
    vertex 974.7999996185288 -12.060999870300323 28.90390600472864
    vertex 974.7999996185288 -3.7509999275207817 26.84099960327148
    vertex 974.7999996185288 -6.156605995069383 28.90390600472864
  endloop
endfacet
facet normal 1.040834085586084e-16 -1.0 0.0
  outer loop
    vertex 970.7999996185288 -12.060999870300323 28.90390600472864
    vertex 974.7999996185288 -12.060999870300323 24.384000778198242
    vertex 974.7999996185288 -12.060999870300323 28.90390600472864
  endloop
endfacet
facet normal 1.040834085586084e-16 -1.0 0.0
  outer loop
    vertex 974.7999996185288 -12.060999870300323 24.384000778198242
    vertex 970.7999996185288 -12.060999870300323 28.90390600472864
    vertex 970.7999996185288 -12.060999870300323 24.384000778198242
  endloop
endfacet
facet normal -2.3099390238582464e-17 0.22193153124472678 -0.9750622520841278
  outer loop
    vertex 970.7999996185288 -5.426000118255641 24.875
    vertex 974.7999996185288 -6.106999874115021 24.71999931335449
    vertex 970.7999996185288 -6.106999874115021 24.71999931335449
  endloop
endfacet
facet normal -2.3099390238582464e-17 0.22193153124472678 -0.9750622520841278
  outer loop
    vertex 974.7999996185288 -6.106999874115021 24.71999931335449
    vertex 970.7999996185288 -5.426000118255641 24.875
    vertex 974.7999996185288 -5.426000118255641 24.875
  endloop
endfacet
facet normal -5.864346571493826e-18 0.0563427606061889 -0.9984114849736425
  outer loop
    vertex 970.7999996185288 -6.106999874115021 24.71999931335449
    vertex 974.7999996185288 -12.060999870300323 24.384000778198242
    vertex 970.7999996185288 -12.060999870300323 24.384000778198242
  endloop
endfacet
facet normal -5.864346571493826e-18 0.0563427606061889 -0.9984114849736425
  outer loop
    vertex 974.7999996185288 -12.060999870300323 24.384000778198242
    vertex 970.7999996185288 -6.106999874115021 24.71999931335449
    vertex 974.7999996185288 -6.106999874115021 24.71999931335449
  endloop
endfacet
facet normal -4.812527485575189e-17 0.46237220246926286 -0.8866859344681878
  outer loop
    vertex 970.7999996185288 -4.796999931335478 25.202999114990234
    vertex 974.7999996185288 -5.426000118255641 24.875
    vertex 970.7999996185288 -5.426000118255641 24.875
  endloop
endfacet
facet normal -4.812527485575189e-17 0.46237220246926286 -0.8866859344681878
  outer loop
    vertex 974.7999996185288 -5.426000118255641 24.875
    vertex 970.7999996185288 -4.796999931335478 25.202999114990234
    vertex 974.7999996185288 -4.796999931335478 25.202999114990234
  endloop
endfacet
facet normal 0.0 0.0 1.0
  outer loop
    vertex 974.7999996185288 -6.156605995069383 28.90390600472864
    vertex 970.7999996185288 -12.060999870300323 28.90390600472864
    vertex 974.7999996185288 -12.060999870300323 28.90390600472864
  endloop
endfacet
facet normal 0.0 0.0 1.0
  outer loop
    vertex 970.7999996185288 -12.060999870300323 28.90390600472864
    vertex 974.7999996185288 -6.156605995069383 28.90390600472864
    vertex 970.7999996185288 -6.156605995069384 28.90390600472864
  endloop
endfacet
facet normal -1.0 -1.040834085586084e-16 0.0
  outer loop
    vertex 970.7999996185288 -12.060999870300323 3.5039110401595908
    vertex 970.7999996185288 -4.060999870300324 -0.49608895984040885
    vertex 970.7999996185288 -12.060999870300323 -0.49608895984040885
  endloop
endfacet
facet normal -1.0 -1.040834085586084e-16 0.0
  outer loop
    vertex 970.7999996185288 -4.060999870300324 -0.49608895984040885
    vertex 970.7999996185288 -12.060999870300323 3.5039110401595908
    vertex 970.7999996185288 -4.060999870300324 3.5039110401595908
  endloop
endfacet
facet normal 1.0 1.040834085586084e-16 0.0
  outer loop
    vertex 974.7999996185288 -4.060999870300324 3.5039110401595908
    vertex 974.7999996185288 -12.060999870300323 -0.49608895984040885
    vertex 974.7999996185288 -4.060999870300324 -0.49608895984040885
  endloop
endfacet
facet normal 1.0 1.040834085586084e-16 0.0
  outer loop
    vertex 974.7999996185288 -12.060999870300323 -0.49608895984040885
    vertex 974.7999996185288 -4.060999870300324 3.5039110401595908
    vertex 974.7999996185288 -12.060999870300323 3.5039110401595908
  endloop
endfacet
facet normal 0.0 0.0 -1.0
  outer loop
    vertex 970.7999996185288 -4.060999870300324 -0.49608895984040885
    vertex 974.7999996185288 -12.060999870300323 -0.49608895984040885
    vertex 970.7999996185288 -12.060999870300323 -0.49608895984040885
  endloop
endfacet
facet normal 0.0 0.0 -1.0
  outer loop
    vertex 974.7999996185288 -12.060999870300323 -0.49608895984040885
    vertex 970.7999996185288 -4.060999870300324 -0.49608895984040885
    vertex 974.7999996185288 -4.060999870300324 -0.49608895984040885
  endloop
endfacet
facet normal -1.040834085586084e-16 1.0 0.0
  outer loop
    vertex 970.7999996185288 -4.060999870300324 -0.49608895984040885
    vertex 974.7999996185288 -4.060999870300324 3.5039110401595908
    vertex 974.7999996185288 -4.060999870300324 -0.49608895984040885
  endloop
endfacet
facet normal -1.040834085586084e-16 1.0 0.0
  outer loop
    vertex 974.7999996185288 -4.060999870300324 3.5039110401595908
    vertex 970.7999996185288 -4.060999870300324 -0.49608895984040885
    vertex 970.7999996185288 -4.060999870300324 3.5039110401595908
  endloop
endfacet
facet normal 0.0 0.0 1.0
  outer loop
    vertex 974.7999996185288 -4.060999870300324 3.5039110401595908
    vertex 970.7999996185288 -12.060999870300323 3.5039110401595908
    vertex 974.7999996185288 -12.060999870300323 3.5039110401595908
  endloop
endfacet
facet normal 0.0 0.0 1.0
  outer loop
    vertex 970.7999996185288 -12.060999870300323 3.5039110401595908
    vertex 974.7999996185288 -4.060999870300324 3.5039110401595908
    vertex 970.7999996185288 -4.060999870300324 3.5039110401595908
  endloop
endfacet
facet normal 1.040834085586084e-16 -1.0 0.0
  outer loop
    vertex 970.7999996185288 -12.060999870300323 3.5039110401595908
    vertex 974.7999996185288 -12.060999870300323 -0.49608895984040885
    vertex 974.7999996185288 -12.060999870300323 3.5039110401595908
  endloop
endfacet
facet normal 1.040834085586084e-16 -1.0 0.0
  outer loop
    vertex 974.7999996185288 -12.060999870300323 -0.49608895984040885
    vertex 970.7999996185288 -12.060999870300323 3.5039110401595908
    vertex 970.7999996185288 -12.060999870300323 -0.49608895984040885
  endloop
endfacet
facet normal -1.0 -1.040834085586084e-16 0.0
  outer loop
    vertex 919.9999996185288 -12.060999870300328 3.5039110401595908
    vertex 919.9999996185288 -4.06099987030033 -0.49608895984040885
    vertex 919.9999996185288 -12.060999870300328 -0.49608895984040885
  endloop
endfacet
facet normal -1.0 -1.040834085586084e-16 0.0
  outer loop
    vertex 919.9999996185288 -4.06099987030033 -0.49608895984040885
    vertex 919.9999996185288 -12.060999870300328 3.5039110401595908
    vertex 919.9999996185288 -4.06099987030033 3.5039110401595908
  endloop
endfacet
facet normal 1.0 1.040834085586084e-16 0.0
  outer loop
    vertex 923.9999996185288 -4.06099987030033 3.5039110401595908
    vertex 923.9999996185288 -12.060999870300328 -0.49608895984040885
    vertex 923.9999996185288 -4.06099987030033 -0.49608895984040885
  endloop
endfacet
facet normal 1.0 1.040834085586084e-16 0.0
  outer loop
    vertex 923.9999996185288 -12.060999870300328 -0.49608895984040885
    vertex 923.9999996185288 -4.06099987030033 3.5039110401595908
    vertex 923.9999996185288 -12.060999870300328 3.5039110401595908
  endloop
endfacet
facet normal 0.0 0.0 -1.0
  outer loop
    vertex 919.9999996185288 -4.06099987030033 -0.49608895984040885
    vertex 923.9999996185288 -12.060999870300328 -0.49608895984040885
    vertex 919.9999996185288 -12.060999870300328 -0.49608895984040885
  endloop
endfacet
facet normal 0.0 0.0 -1.0
  outer loop
    vertex 923.9999996185288 -12.060999870300328 -0.49608895984040885
    vertex 919.9999996185288 -4.06099987030033 -0.49608895984040885
    vertex 923.9999996185288 -4.06099987030033 -0.49608895984040885
  endloop
endfacet
facet normal -1.040834085586084e-16 1.0 0.0
  outer loop
    vertex 919.9999996185288 -4.06099987030033 -0.49608895984040885
    vertex 923.9999996185288 -4.06099987030033 3.5039110401595908
    vertex 923.9999996185288 -4.06099987030033 -0.49608895984040885
  endloop
endfacet
facet normal -1.040834085586084e-16 1.0 0.0
  outer loop
    vertex 923.9999996185288 -4.06099987030033 3.5039110401595908
    vertex 919.9999996185288 -4.06099987030033 -0.49608895984040885
    vertex 919.9999996185288 -4.06099987030033 3.5039110401595908
  endloop
endfacet
facet normal 0.0 0.0 1.0
  outer loop
    vertex 923.9999996185288 -4.06099987030033 3.5039110401595908
    vertex 919.9999996185288 -12.060999870300328 3.5039110401595908
    vertex 923.9999996185288 -12.060999870300328 3.5039110401595908
  endloop
endfacet
facet normal 0.0 0.0 1.0
  outer loop
    vertex 919.9999996185288 -12.060999870300328 3.5039110401595908
    vertex 923.9999996185288 -4.06099987030033 3.5039110401595908
    vertex 919.9999996185288 -4.06099987030033 3.5039110401595908
  endloop
endfacet
facet normal 1.040834085586084e-16 -1.0 0.0
  outer loop
    vertex 919.9999996185288 -12.060999870300328 3.5039110401595908
    vertex 923.9999996185288 -12.060999870300328 -0.49608895984040885
    vertex 923.9999996185288 -12.060999870300328 3.5039110401595908
  endloop
endfacet
facet normal 1.040834085586084e-16 -1.0 0.0
  outer loop
    vertex 923.9999996185288 -12.060999870300328 -0.49608895984040885
    vertex 919.9999996185288 -12.060999870300328 3.5039110401595908
    vertex 919.9999996185288 -12.060999870300328 -0.49608895984040885
  endloop
endfacet
facet normal -1.0369452043064351e-16 0.9962636876198582 -0.08636356135594392
  outer loop
    vertex 919.9999996185288 -2.4249999523163193 32.59500122070312
    vertex 923.9999996185288 -2.397000074386629 32.917999267578125
    vertex 923.9999996185288 -2.4249999523163193 32.59500122070312
  endloop
endfacet
facet normal -1.0369452043064351e-16 0.9962636876198582 -0.08636356135594392
  outer loop
    vertex 923.9999996185288 -2.397000074386629 32.917999267578125
    vertex 919.9999996185288 -2.4249999523163193 32.59500122070312
    vertex 919.9999996185288 -2.397000074386629 32.917999267578125
  endloop
endfacet
facet normal 9.38426018871499e-17 -0.9016096146996185 0.43255069377034333
  outer loop
    vertex 919.9999996185288 -4.94500017166141 33.803001403808594
    vertex 923.9999996185288 -5.182000160217316 33.308998107910156
    vertex 923.9999996185288 -4.94500017166141 33.803001403808594
  endloop
endfacet
facet normal 9.38426018871499e-17 -0.9016096146996185 0.43255069377034333
  outer loop
    vertex 923.9999996185288 -5.182000160217316 33.308998107910156
    vertex 919.9999996185288 -4.94500017166141 33.803001403808594
    vertex 919.9999996185288 -5.182000160217316 33.308998107910156
  endloop
endfacet
facet normal -1.0 -1.040834085586084e-16 0.0
  outer loop
    vertex 919.9999996185288 -12.060999870300328 28.90390600472864
    vertex 919.9999996185288 -6.1069998741150275 24.71999931335449
    vertex 919.9999996185288 -12.060999870300328 24.384000778198242
  endloop
endfacet
facet normal -1.0 -1.040834085586084e-16 0.0
  outer loop
    vertex 919.9999996185288 -6.1069998741150275 24.71999931335449
    vertex 919.9999996185288 -12.060999870300328 28.90390600472864
    vertex 919.9999996185288 -5.426000118255647 24.875
  endloop
endfacet
facet normal -1.0 -1.040834085586084e-16 0.0
  outer loop
    vertex 919.9999996185288 -5.426000118255647 24.875
    vertex 919.9999996185288 -12.060999870300328 28.90390600472864
    vertex 919.9999996185288 -4.796999931335483 25.202999114990234
  endloop
endfacet
facet normal -1.0 -1.040834085586084e-16 0.0
  outer loop
    vertex 919.9999996185288 -4.796999931335483 25.202999114990234
    vertex 919.9999996185288 -12.060999870300328 28.90390600472864
    vertex 919.9999996185288 -4.438000202178987 25.52700042724609
  endloop
endfacet
facet normal -1.0 -1.040834085586084e-16 0.0
  outer loop
    vertex 919.9999996185288 -4.438000202178987 25.52700042724609
    vertex 919.9999996185288 -12.060999870300328 28.90390600472864
    vertex 919.9999996185288 -3.9059998989105544 26.360000610351562
  endloop
endfacet
facet normal -1.0 -1.040834085586084e-16 0.0
  outer loop
    vertex 919.9999996185288 -3.9059998989105544 26.360000610351562
    vertex 919.9999996185288 -12.060999870300328 28.90390600472864
    vertex 919.9999996185288 -3.7509999275207875 26.84099960327148
  endloop
endfacet
facet normal -1.0 -1.040834085586084e-16 0.0
  outer loop
    vertex 919.9999996185288 -3.7509999275207875 26.84099960327148
    vertex 919.9999996185288 -12.060999870300328 28.90390600472864
    vertex 919.9999996185288 -6.156605995069389 28.90390600472864
  endloop
endfacet
facet normal -1.0 -1.040834085586084e-16 0.0
  outer loop
    vertex 919.9999996185288 -3.7509999275207875 26.84099960327148
    vertex 919.9999996185288 -6.156605995069389 28.90390600472864
    vertex 919.9999996185288 -2.4249999523163193 32.59500122070312
  endloop
endfacet
facet normal -1.0 -1.040834085586084e-16 0.0
  outer loop
    vertex 919.9999996185288 -2.4249999523163193 32.59500122070312
    vertex 919.9999996185288 -6.156605995069389 28.90390600472864
    vertex 919.9999996185288 -5.182000160217316 33.308998107910156
  endloop
endfacet
facet normal -1.0 -1.040834085586084e-16 0.0
  outer loop
    vertex 919.9999996185288 -2.4249999523163193 32.59500122070312
    vertex 919.9999996185288 -5.182000160217316 33.308998107910156
    vertex 919.9999996185288 -2.397000074386629 32.917999267578125
  endloop
endfacet
facet normal -1.0 -1.040834085586084e-16 0.0
  outer loop
    vertex 919.9999996185288 -2.397000074386629 32.917999267578125
    vertex 919.9999996185288 -5.182000160217316 33.308998107910156
    vertex 919.9999996185288 -2.476999998092686 33.3390007019043
  endloop
endfacet
facet normal -1.0 -1.040834085586084e-16 0.0
  outer loop
    vertex 919.9999996185288 -2.476999998092686 33.3390007019043
    vertex 919.9999996185288 -5.182000160217316 33.308998107910156
    vertex 919.9999996185288 -4.94500017166141 33.803001403808594
  endloop
endfacet
facet normal -1.0 -1.040834085586084e-16 0.0
  outer loop
    vertex 919.9999996185288 -2.476999998092686 33.3390007019043
    vertex 919.9999996185288 -4.94500017166141 33.803001403808594
    vertex 919.9999996185288 -2.6889998912811612 33.70199966430663
  endloop
endfacet
facet normal -1.0 -1.040834085586084e-16 0.0
  outer loop
    vertex 919.9999996185288 -2.6889998912811612 33.70199966430663
    vertex 919.9999996185288 -4.94500017166141 33.803001403808594
    vertex 919.9999996185288 -3.005000114440954 33.959999084472656
  endloop
endfacet
facet normal -1.0 -1.040834085586084e-16 0.0
  outer loop
    vertex 919.9999996185288 -3.005000114440954 33.959999084472656
    vertex 919.9999996185288 -4.94500017166141 33.803001403808594
    vertex 919.9999996185288 -4.716000080108677 34.028999328613274
  endloop
endfacet
facet normal -1.0 -1.040834085586084e-16 0.0
  outer loop
    vertex 919.9999996185288 -3.005000114440954 33.959999084472656
    vertex 919.9999996185288 -4.716000080108677 34.028999328613274
    vertex 919.9999996185288 -4.231999874115025 34.20800018310547
  endloop
endfacet
facet normal -6.582603307510133e-17 0.6324354091270493 0.774613099090315
  outer loop
    vertex 923.9999996185288 -2.6889998912811612 33.70199966430663
    vertex 919.9999996185288 -3.005000114440954 33.959999084472656
    vertex 923.9999996185288 -3.005000114440954 33.959999084472656
  endloop
endfacet
facet normal -6.582603307510133e-17 0.6324354091270493 0.774613099090315
  outer loop
    vertex 919.9999996185288 -3.005000114440954 33.959999084472656
    vertex 923.9999996185288 -2.6889998912811612 33.70199966430663
    vertex 919.9999996185288 -2.6889998912811612 33.70199966430663
  endloop
endfacet
facet normal 7.311087784322103e-17 -0.7024258607177817 0.7117569179115043
  outer loop
    vertex 923.9999996185288 -4.716000080108677 34.028999328613274
    vertex 919.9999996185288 -4.94500017166141 33.803001403808594
    vertex 923.9999996185288 -4.94500017166141 33.803001403808594
  endloop
endfacet
facet normal 7.311087784322103e-17 -0.7024258607177817 0.7117569179115043
  outer loop
    vertex 919.9999996185288 -4.94500017166141 33.803001403808594
    vertex 923.9999996185288 -4.716000080108677 34.028999328613274
    vertex 919.9999996185288 -4.716000080108677 34.028999328613274
  endloop
endfacet
facet normal -6.97352688086004e-17 0.6699940919914543 -0.7423664302058296
  outer loop
    vertex 919.9999996185288 -4.438000202178987 25.52700042724609
    vertex 923.9999996185288 -4.796999931335483 25.202999114990234
    vertex 919.9999996185288 -4.796999931335483 25.202999114990234
  endloop
endfacet
facet normal -6.97352688086004e-17 0.6699940919914543 -0.7423664302058296
  outer loop
    vertex 923.9999996185288 -4.796999931335483 25.202999114990234
    vertex 919.9999996185288 -4.438000202178987 25.52700042724609
    vertex 923.9999996185288 -4.438000202178987 25.52700042724609
  endloop
endfacet
facet normal -2.0620350639668885e-17 0.1981137140417318 0.9801790429858164
  outer loop
    vertex 923.9999996185288 -3.005000114440954 33.959999084472656
    vertex 919.9999996185288 -4.231999874115025 34.20800018310547
    vertex 923.9999996185288 -4.231999874115025 34.20800018310547
  endloop
endfacet
facet normal -2.0620350639668885e-17 0.1981137140417318 0.9801790429858164
  outer loop
    vertex 919.9999996185288 -4.231999874115025 34.20800018310547
    vertex 923.9999996185288 -3.005000114440954 33.959999084472656
    vertex 919.9999996185288 -3.005000114440954 33.959999084472656
  endloop
endfacet
facet normal 3.610381219418807e-17 -0.34687384564138624 0.9379117950052425
  outer loop
    vertex 923.9999996185288 -4.231999874115025 34.20800018310547
    vertex 919.9999996185288 -4.716000080108677 34.028999328613274
    vertex 923.9999996185288 -4.716000080108677 34.028999328613274
  endloop
endfacet
facet normal 3.610381219418807e-17 -0.34687384564138624 0.9379117950052425
  outer loop
    vertex 919.9999996185288 -4.716000080108677 34.028999328613274
    vertex 923.9999996185288 -4.231999874115025 34.20800018310547
    vertex 919.9999996185288 -4.231999874115025 34.20800018310547
  endloop
endfacet
facet normal -1.0142508371947266e-16 0.974459667722749 -0.22456258811669866
  outer loop
    vertex 919.9999996185288 -3.7509999275207875 26.84099960327148
    vertex 923.9999996185288 -2.4249999523163193 32.59500122070312
    vertex 923.9999996185288 -3.7509999275207875 26.84099960327148
  endloop
endfacet
facet normal -1.0142508371947266e-16 0.974459667722749 -0.22456258811669866
  outer loop
    vertex 923.9999996185288 -2.4249999523163193 32.59500122070312
    vertex 919.9999996185288 -3.7509999275207875 26.84099960327148
    vertex 919.9999996185288 -2.4249999523163193 32.59500122070312
  endloop
endfacet
facet normal -9.906676046870665e-17 0.9518016544675618 -0.30671421641784413
  outer loop
    vertex 919.9999996185288 -3.9059998989105544 26.360000610351562
    vertex 923.9999996185288 -3.7509999275207875 26.84099960327148
    vertex 923.9999996185288 -3.9059998989105544 26.360000610351562
  endloop
endfacet
facet normal -9.906676046870665e-17 0.9518016544675618 -0.30671421641784413
  outer loop
    vertex 923.9999996185288 -3.7509999275207875 26.84099960327148
    vertex 919.9999996185288 -3.9059998989105544 26.360000610351562
    vertex 919.9999996185288 -3.7509999275207875 26.84099960327148
  endloop
endfacet
facet normal -1.0225365569862475e-16 0.9824203214967414 0.18668238243133595
  outer loop
    vertex 919.9999996185288 -2.397000074386629 32.917999267578125
    vertex 923.9999996185288 -2.476999998092686 33.3390007019043
    vertex 923.9999996185288 -2.397000074386629 32.917999267578125
  endloop
endfacet
facet normal -1.0225365569862475e-16 0.9824203214967414 0.18668238243133595
  outer loop
    vertex 923.9999996185288 -2.476999998092686 33.3390007019043
    vertex 919.9999996185288 -2.397000074386629 32.917999267578125
    vertex 919.9999996185288 -2.476999998092686 33.3390007019043
  endloop
endfacet
facet normal -8.987804583822798e-17 0.8635194319911083 0.5043155664598845
  outer loop
    vertex 919.9999996185288 -2.476999998092686 33.3390007019043
    vertex 923.9999996185288 -2.6889998912811612 33.70199966430663
    vertex 923.9999996185288 -2.476999998092686 33.3390007019043
  endloop
endfacet
facet normal -8.987804583822798e-17 0.8635194319911083 0.5043155664598845
  outer loop
    vertex 923.9999996185288 -2.6889998912811612 33.70199966430663
    vertex 919.9999996185288 -2.476999998092686 33.3390007019043
    vertex 919.9999996185288 -2.6889998912811612 33.70199966430663
  endloop
endfacet
facet normal -8.771997901298874e-17 0.8427854182311336 -0.5382496993189808
  outer loop
    vertex 919.9999996185288 -4.438000202178987 25.52700042724609
    vertex 923.9999996185288 -3.9059998989105544 26.360000610351562
    vertex 923.9999996185288 -4.438000202178987 25.52700042724609
  endloop
endfacet
facet normal -8.771997901298874e-17 0.8427854182311336 -0.5382496993189808
  outer loop
    vertex 923.9999996185288 -3.9059998989105544 26.360000610351562
    vertex 919.9999996185288 -4.438000202178987 25.52700042724609
    vertex 919.9999996185288 -3.9059998989105544 26.360000610351562
  endloop
endfacet
facet normal 1.0162585711916802e-16 -0.9763886341399306 0.21602137654028766
  outer loop
    vertex 919.9999996185288 -5.182000160217316 33.308998107910156
    vertex 923.9999996185288 -6.1566059950693885 28.90390600472864
    vertex 923.9999996185288 -5.182000160217316 33.308998107910156
  endloop
endfacet
facet normal 1.0162585711916802e-16 -0.9763886341399306 0.21602137654028766
  outer loop
    vertex 923.9999996185288 -6.1566059950693885 28.90390600472864
    vertex 919.9999996185288 -5.182000160217316 33.308998107910156
    vertex 919.9999996185288 -6.156605995069389 28.90390600472864
  endloop
endfacet
facet normal 1.0 1.040834085586084e-16 0.0
  outer loop
    vertex 923.9999996185288 -2.4249999523163193 32.59500122070312
    vertex 923.9999996185288 -6.1566059950693885 28.90390600472864
    vertex 923.9999996185288 -3.7509999275207875 26.84099960327148
  endloop
endfacet
facet normal 1.0 1.040834085586084e-16 0.0
  outer loop
    vertex 923.9999996185288 -6.1566059950693885 28.90390600472864
    vertex 923.9999996185288 -2.4249999523163193 32.59500122070312
    vertex 923.9999996185288 -5.182000160217316 33.308998107910156
  endloop
endfacet
facet normal 1.0 1.040834085586084e-16 0.0
  outer loop
    vertex 923.9999996185288 -5.182000160217316 33.308998107910156
    vertex 923.9999996185288 -2.4249999523163193 32.59500122070312
    vertex 923.9999996185288 -2.397000074386629 32.917999267578125
  endloop
endfacet
facet normal 1.0 1.040834085586084e-16 0.0
  outer loop
    vertex 923.9999996185288 -5.182000160217316 33.308998107910156
    vertex 923.9999996185288 -2.397000074386629 32.917999267578125
    vertex 923.9999996185288 -2.476999998092686 33.3390007019043
  endloop
endfacet
facet normal 1.0 1.040834085586084e-16 0.0
  outer loop
    vertex 923.9999996185288 -5.182000160217316 33.308998107910156
    vertex 923.9999996185288 -2.476999998092686 33.3390007019043
    vertex 923.9999996185288 -4.94500017166141 33.803001403808594
  endloop
endfacet
facet normal 1.0 1.040834085586084e-16 0.0
  outer loop
    vertex 923.9999996185288 -4.94500017166141 33.803001403808594
    vertex 923.9999996185288 -2.476999998092686 33.3390007019043
    vertex 923.9999996185288 -2.6889998912811612 33.70199966430663
  endloop
endfacet
facet normal 1.0 1.040834085586084e-16 0.0
  outer loop
    vertex 923.9999996185288 -4.94500017166141 33.803001403808594
    vertex 923.9999996185288 -2.6889998912811612 33.70199966430663
    vertex 923.9999996185288 -3.005000114440954 33.959999084472656
  endloop
endfacet
facet normal 1.0 1.040834085586084e-16 0.0
  outer loop
    vertex 923.9999996185288 -4.94500017166141 33.803001403808594
    vertex 923.9999996185288 -3.005000114440954 33.959999084472656
    vertex 923.9999996185288 -4.716000080108677 34.028999328613274
  endloop
endfacet
facet normal 1.0 1.040834085586084e-16 0.0
  outer loop
    vertex 923.9999996185288 -4.716000080108677 34.028999328613274
    vertex 923.9999996185288 -3.005000114440954 33.959999084472656
    vertex 923.9999996185288 -4.231999874115025 34.20800018310547
  endloop
endfacet
facet normal 1.0 1.040834085586084e-16 0.0
  outer loop
    vertex 923.9999996185288 -6.106999874115027 24.71999931335449
    vertex 923.9999996185288 -12.060999870300328 28.90390600472864
    vertex 923.9999996185288 -12.060999870300328 24.384000778198242
  endloop
endfacet
facet normal 1.0 1.040834085586084e-16 0.0
  outer loop
    vertex 923.9999996185288 -12.060999870300328 28.90390600472864
    vertex 923.9999996185288 -6.106999874115027 24.71999931335449
    vertex 923.9999996185288 -5.426000118255647 24.875
  endloop
endfacet
facet normal 1.0 1.040834085586084e-16 0.0
  outer loop
    vertex 923.9999996185288 -12.060999870300328 28.90390600472864
    vertex 923.9999996185288 -5.426000118255647 24.875
    vertex 923.9999996185288 -4.796999931335483 25.202999114990234
  endloop
endfacet
facet normal 1.0 1.040834085586084e-16 0.0
  outer loop
    vertex 923.9999996185288 -12.060999870300328 28.90390600472864
    vertex 923.9999996185288 -4.796999931335483 25.202999114990234
    vertex 923.9999996185288 -4.438000202178987 25.52700042724609
  endloop
endfacet
facet normal 1.0 1.040834085586084e-16 0.0
  outer loop
    vertex 923.9999996185288 -12.060999870300328 28.90390600472864
    vertex 923.9999996185288 -4.438000202178987 25.52700042724609
    vertex 923.9999996185288 -3.9059998989105544 26.360000610351562
  endloop
endfacet
facet normal 1.0 1.040834085586084e-16 0.0
  outer loop
    vertex 923.9999996185288 -12.060999870300328 28.90390600472864
    vertex 923.9999996185288 -3.9059998989105544 26.360000610351562
    vertex 923.9999996185288 -3.7509999275207875 26.84099960327148
  endloop
endfacet
facet normal 1.0 1.040834085586084e-16 0.0
  outer loop
    vertex 923.9999996185288 -12.060999870300328 28.90390600472864
    vertex 923.9999996185288 -3.7509999275207875 26.84099960327148
    vertex 923.9999996185288 -6.1566059950693885 28.90390600472864
  endloop
endfacet
facet normal 1.040834085586084e-16 -1.0 0.0
  outer loop
    vertex 919.9999996185288 -12.060999870300328 28.90390600472864
    vertex 923.9999996185288 -12.060999870300328 24.384000778198242
    vertex 923.9999996185288 -12.060999870300328 28.90390600472864
  endloop
endfacet
facet normal 1.040834085586084e-16 -1.0 0.0
  outer loop
    vertex 923.9999996185288 -12.060999870300328 24.384000778198242
    vertex 919.9999996185288 -12.060999870300328 28.90390600472864
    vertex 919.9999996185288 -12.060999870300328 24.384000778198242
  endloop
endfacet
facet normal -2.3099390238582464e-17 0.22193153124472678 -0.9750622520841278
  outer loop
    vertex 919.9999996185288 -5.426000118255647 24.875
    vertex 923.9999996185288 -6.106999874115027 24.71999931335449
    vertex 919.9999996185288 -6.1069998741150275 24.71999931335449
  endloop
endfacet
facet normal -2.3099390238582464e-17 0.22193153124472678 -0.9750622520841278
  outer loop
    vertex 923.9999996185288 -6.106999874115027 24.71999931335449
    vertex 919.9999996185288 -5.426000118255647 24.875
    vertex 923.9999996185288 -5.426000118255647 24.875
  endloop
endfacet
facet normal -5.864346571493826e-18 0.0563427606061889 -0.9984114849736425
  outer loop
    vertex 919.9999996185288 -6.1069998741150275 24.71999931335449
    vertex 923.9999996185288 -12.060999870300328 24.384000778198242
    vertex 919.9999996185288 -12.060999870300328 24.384000778198242
  endloop
endfacet
facet normal -5.864346571493826e-18 0.0563427606061889 -0.9984114849736425
  outer loop
    vertex 923.9999996185288 -12.060999870300328 24.384000778198242
    vertex 919.9999996185288 -6.1069998741150275 24.71999931335449
    vertex 923.9999996185288 -6.106999874115027 24.71999931335449
  endloop
endfacet
facet normal -4.812527485575189e-17 0.46237220246926286 -0.8866859344681878
  outer loop
    vertex 919.9999996185288 -4.796999931335483 25.202999114990234
    vertex 923.9999996185288 -5.426000118255647 24.875
    vertex 919.9999996185288 -5.426000118255647 24.875
  endloop
endfacet
facet normal -4.812527485575189e-17 0.46237220246926286 -0.8866859344681878
  outer loop
    vertex 923.9999996185288 -5.426000118255647 24.875
    vertex 919.9999996185288 -4.796999931335483 25.202999114990234
    vertex 923.9999996185288 -4.796999931335483 25.202999114990234
  endloop
endfacet
facet normal 0.0 0.0 1.0
  outer loop
    vertex 923.9999996185288 -6.1566059950693885 28.90390600472864
    vertex 919.9999996185288 -12.060999870300328 28.90390600472864
    vertex 923.9999996185288 -12.060999870300328 28.90390600472864
  endloop
endfacet
facet normal 0.0 0.0 1.0
  outer loop
    vertex 919.9999996185288 -12.060999870300328 28.90390600472864
    vertex 923.9999996185288 -6.1566059950693885 28.90390600472864
    vertex 919.9999996185288 -6.156605995069389 28.90390600472864
  endloop
endfacet
facet normal -1.040834085586084e-16 1.0 0.0
  outer loop
    vertex 919.9999996185288 -12.060999870300328 -0.49608895984040885
    vertex 974.7999996185288 -12.060999870300323 28.90390600472864
    vertex 974.7999996185288 -12.060999870300323 -0.49608895984041024
  endloop
endfacet
facet normal -1.040834085586084e-16 1.0 0.0
  outer loop
    vertex 974.7999996185288 -12.060999870300323 28.90390600472864
    vertex 919.9999996185288 -12.060999870300328 -0.49608895984040885
    vertex 919.9999996185288 -12.060999870300328 28.90390600472864
  endloop
endfacet
facet normal 0.0 0.0 1.0
  outer loop
    vertex 974.7999996185288 -12.060999870300323 28.90390600472864
    vertex 919.9999996185288 -22.06099987030033 28.90390600472864
    vertex 974.7999996185288 -22.06099987030032 28.90390600472864
  endloop
endfacet
facet normal 0.0 0.0 1.0
  outer loop
    vertex 919.9999996185288 -22.06099987030033 28.90390600472864
    vertex 974.7999996185288 -12.060999870300323 28.90390600472864
    vertex 919.9999996185288 -12.060999870300328 28.90390600472864
  endloop
endfacet
facet normal 1.0 1.040834085586084e-16 0.0
  outer loop
    vertex 974.7999996185288 -12.060999870300323 28.90390600472864
    vertex 974.7999996185288 -22.06099987030032 -0.49608895984041024
    vertex 974.7999996185288 -12.060999870300323 -0.49608895984041024
  endloop
endfacet
facet normal 1.0 1.040834085586084e-16 0.0
  outer loop
    vertex 974.7999996185288 -22.06099987030032 -0.49608895984041024
    vertex 974.7999996185288 -12.060999870300323 28.90390600472864
    vertex 974.7999996185288 -22.06099987030032 28.90390600472864
  endloop
endfacet
facet normal -2.955084778479534e-17 1.1312567385812526e-16 -1.0
  outer loop
    vertex 919.9999996185288 -12.060999870300328 -0.49608895984040885
    vertex 925.9999996185288 -22.06099987030033 -0.49608895984040885
    vertex 919.9999996185288 -22.06099987030033 -0.49608895984040885
  endloop
endfacet
facet normal -2.955084778479534e-17 1.1312567385812526e-16 -1.0
  outer loop
    vertex 925.9999996185288 -22.06099987030033 -0.49608895984040885
    vertex 919.9999996185288 -12.060999870300328 -0.49608895984040885
    vertex 955.3999996185288 -22.060999870300325 -0.4960889598404099
  endloop
endfacet
facet normal -2.955084778479534e-17 1.1312567385812526e-16 -1.0
  outer loop
    vertex 955.3999996185288 -22.060999870300325 -0.4960889598404099
    vertex 919.9999996185288 -12.060999870300328 -0.49608895984040885
    vertex 974.7999996185288 -22.06099987030032 -0.49608895984041024
  endloop
endfacet
facet normal -2.955084778479534e-17 1.1312567385812526e-16 -1.0
  outer loop
    vertex 974.7999996185288 -22.06099987030032 -0.49608895984041024
    vertex 919.9999996185288 -12.060999870300328 -0.49608895984040885
    vertex 974.7999996185288 -12.060999870300323 -0.49608895984041024
  endloop
endfacet
facet normal -2.955084778479534e-17 1.1312567385812526e-16 -1.0
  outer loop
    vertex 922.9999996185288 -28.06099987030033 -0.49608895984041096
    vertex 955.3999996185288 -31.06099987030032 -0.49608895984041235
    vertex 922.9999996185288 -31.06099987030033 -0.49608895984041096
  endloop
endfacet
facet normal -2.955084778479534e-17 1.1312567385812526e-16 -1.0
  outer loop
    vertex 955.3999996185288 -31.06099987030032 -0.49608895984041235
    vertex 922.9999996185288 -28.06099987030033 -0.49608895984041096
    vertex 925.9999996185288 -28.06099987030033 -0.49608895984040885
  endloop
endfacet
facet normal -2.955084778479534e-17 1.1312567385812526e-16 -1.0
  outer loop
    vertex 955.3999996185288 -31.06099987030032 -0.49608895984041235
    vertex 925.9999996185288 -28.06099987030033 -0.49608895984040885
    vertex 955.3999996185288 -22.060999870300325 -0.4960889598404099
  endloop
endfacet
facet normal -2.955084778479534e-17 1.1312567385812526e-16 -1.0
  outer loop
    vertex 955.3999996185288 -22.060999870300325 -0.4960889598404099
    vertex 925.9999996185288 -28.06099987030033 -0.49608895984040885
    vertex 925.9999996185288 -22.06099987030033 -0.49608895984040885
  endloop
endfacet
facet normal -1.0 -1.040834085586084e-16 0.0
  outer loop
    vertex 919.9999996185288 -22.06099987030033 28.90390600472864
    vertex 919.9999996185288 -12.060999870300328 -0.49608895984040885
    vertex 919.9999996185288 -22.06099987030033 -0.49608895984040885
  endloop
endfacet
facet normal -1.0 -1.040834085586084e-16 0.0
  outer loop
    vertex 919.9999996185288 -12.060999870300328 -0.49608895984040885
    vertex 919.9999996185288 -22.06099987030033 28.90390600472864
    vertex 919.9999996185288 -12.060999870300328 28.90390600472864
  endloop
endfacet
facet normal 1.040834085586084e-16 -1.0 0.0
  outer loop
    vertex 974.7999996185288 -22.06099987030032 -0.49608895984041024
    vertex 968.7999996185287 -22.06099987030032 12.903906004728642
    vertex 955.3999996185288 -22.060999870300325 -0.4960889598404099
  endloop
endfacet
facet normal 1.040834085586084e-16 -1.0 0.0
  outer loop
    vertex 968.7999996185287 -22.06099987030032 12.903906004728642
    vertex 974.7999996185288 -22.06099987030032 -0.49608895984041024
    vertex 968.7999996185287 -22.06099987030032 22.90390600472864
  endloop
endfacet
facet normal 1.040834085586084e-16 -1.0 0.0
  outer loop
    vertex 974.7999996185288 -22.06099987030032 28.90390600472864
    vertex 968.7999996185287 -22.06099987030032 22.90390600472864
    vertex 974.7999996185288 -22.06099987030032 -0.49608895984041024
  endloop
endfacet
facet normal 1.040834085586084e-16 -1.0 0.0
  outer loop
    vertex 968.7999996185287 -22.06099987030032 22.90390600472864
    vertex 974.7999996185288 -22.06099987030032 28.90390600472864
    vertex 919.9999996185288 -22.06099987030033 28.90390600472864
  endloop
endfacet
facet normal 1.040834085586084e-16 -1.0 0.0
  outer loop
    vertex 968.7999996185287 -22.06099987030032 22.90390600472864
    vertex 919.9999996185288 -22.06099987030033 28.90390600472864
    vertex 925.9999996185288 -22.06099987030033 22.90390600472864
  endloop
endfacet
facet normal 1.040834085586084e-16 -1.0 0.0
  outer loop
    vertex 925.9999996185288 -22.06099987030033 22.90390600472864
    vertex 919.9999996185288 -22.06099987030033 28.90390600472864
    vertex 925.9999996185288 -22.06099987030033 -0.49608895984040885
  endloop
endfacet
facet normal 1.040834085586084e-16 -1.0 0.0
  outer loop
    vertex 925.9999996185288 -22.06099987030033 -0.49608895984040885
    vertex 919.9999996185288 -22.06099987030033 28.90390600472864
    vertex 919.9999996185288 -22.06099987030033 -0.49608895984040885
  endloop
endfacet
facet normal 0.0 0.0 1.0
  outer loop
    vertex 968.7999996185287 -22.06099987030032 22.90390600472864
    vertex 925.9999996185288 -28.06099987030033 22.90390600472864
    vertex 968.7999996185287 -28.06099987030032 22.90390600472864
  endloop
endfacet
facet normal 0.0 0.0 1.0
  outer loop
    vertex 925.9999996185288 -28.06099987030033 22.90390600472864
    vertex 968.7999996185287 -22.06099987030032 22.90390600472864
    vertex 925.9999996185288 -22.06099987030033 22.90390600472864
  endloop
endfacet
facet normal -1.0 0.0 0.0
  outer loop
    vertex 925.9999996185288 -28.06099987030033 22.90390600472864
    vertex 925.9999996185288 -22.06099987030033 -0.49608895984040885
    vertex 925.9999996185288 -28.06099987030033 -0.49608895984040885
  endloop
endfacet
facet normal -1.0 0.0 0.0
  outer loop
    vertex 925.9999996185288 -22.06099987030033 -0.49608895984040885
    vertex 925.9999996185288 -28.06099987030033 22.90390600472864
    vertex 925.9999996185288 -22.06099987030033 22.90390600472864
  endloop
endfacet
facet normal 1.0 0.0 0.0
  outer loop
    vertex 968.7999996185287 -22.06099987030032 22.90390600472864
    vertex 968.7999996185287 -28.06099987030032 12.903906004728642
    vertex 968.7999996185287 -22.06099987030032 12.903906004728642
  endloop
endfacet
facet normal 1.0 0.0 0.0
  outer loop
    vertex 968.7999996185287 -28.06099987030032 12.903906004728642
    vertex 968.7999996185287 -22.06099987030032 22.90390600472864
    vertex 968.7999996185287 -28.06099987030032 22.90390600472864
  endloop
endfacet
facet normal -1.2265945280010525e-16 1.0 2.6314528442434514e-19
  outer loop
    vertex 922.9999996185288 -28.06099987030033 -0.49608895984041096
    vertex 925.9999996185288 -28.06099987030033 22.90390600472864
    vertex 925.9999996185288 -28.06099987030033 -0.49608895984040885
  endloop
endfacet
facet normal -1.2265945280010525e-16 1.0 2.6314528442434514e-19
  outer loop
    vertex 968.7999996185287 -28.06099987030032 12.903906004728642
    vertex 971.7999996185288 -28.06099987030032 25.90390600472863
    vertex 971.7999996185288 -28.06099987030032 15.903904877393343
  endloop
endfacet
facet normal -1.2265945280010525e-16 1.0 2.6314528442434514e-19
  outer loop
    vertex 971.7999996185288 -28.06099987030032 25.90390600472863
    vertex 968.7999996185287 -28.06099987030032 12.903906004728642
    vertex 968.7999996185287 -28.06099987030032 22.90390600472864
  endloop
endfacet
facet normal -1.2265945280010525e-16 1.0 2.6314528442434514e-19
  outer loop
    vertex 971.7999996185288 -28.06099987030032 25.90390600472863
    vertex 968.7999996185287 -28.06099987030032 22.90390600472864
    vertex 922.9999996185288 -28.06099987030033 25.90390600472863
  endloop
endfacet
facet normal -1.2265945280010525e-16 1.0 2.6314528442434514e-19
  outer loop
    vertex 922.9999996185288 -28.06099987030033 25.90390600472863
    vertex 968.7999996185287 -28.06099987030032 22.90390600472864
    vertex 925.9999996185288 -28.06099987030033 22.90390600472864
  endloop
endfacet
facet normal -1.2265945280010525e-16 1.0 2.6314528442434514e-19
  outer loop
    vertex 922.9999996185288 -28.06099987030033 25.90390600472863
    vertex 925.9999996185288 -28.06099987030033 22.90390600472864
    vertex 922.9999996185288 -28.06099987030033 -0.49608895984041096
  endloop
endfacet
facet normal 1.7848178211523715e-16 -1.0 -4.2547477710241786e-17
  outer loop
    vertex 922.9999996185288 -31.06099987030033 25.90390600472863
    vertex 971.7999996185288 -31.060999870300318 15.903904877393343
    vertex 971.7999996185288 -31.06099987030032 25.90390600472863
  endloop
endfacet
facet normal 1.7848178211523715e-16 -1.0 -4.2547477710241786e-17
  outer loop
    vertex 971.7999996185288 -31.060999870300318 15.903904877393343
    vertex 922.9999996185288 -31.06099987030033 25.90390600472863
    vertex 955.3999996185288 -31.06099987030032 -0.49608895984041235
  endloop
endfacet
facet normal 1.7848178211523715e-16 -1.0 -4.2547477710241786e-17
  outer loop
    vertex 955.3999996185288 -31.06099987030032 -0.49608895984041235
    vertex 922.9999996185288 -31.06099987030033 25.90390600472863
    vertex 922.9999996185288 -31.06099987030033 -0.49608895984041096
  endloop
endfacet
facet normal 0.7071066483287756 3.0451265270375458e-15 -0.7071069140442946
  outer loop
    vertex 955.3999996185288 -22.060999870300325 -0.4960889598404099
    vertex 971.7999996185288 -31.060999870300318 15.903904877393343
    vertex 955.3999996185288 -31.06099987030032 -0.49608895984041235
  endloop
endfacet
facet normal 0.7071066483287756 3.0451265270375458e-15 -0.7071069140442946
  outer loop
    vertex 971.7999996185288 -31.060999870300318 15.903904877393343
    vertex 955.3999996185288 -22.060999870300325 -0.4960889598404099
    vertex 968.7999996185287 -28.06099987030032 12.903906004728642
  endloop
endfacet
facet normal 0.7071066483287756 3.0451265270375458e-15 -0.7071069140442946
  outer loop
    vertex 968.7999996185287 -28.06099987030032 12.903906004728642
    vertex 955.3999996185288 -22.060999870300325 -0.4960889598404099
    vertex 968.7999996185287 -22.06099987030032 12.903906004728642
  endloop
endfacet
facet normal 0.7071066483287756 3.0451265270375458e-15 -0.7071069140442946
  outer loop
    vertex 971.7999996185288 -28.06099987030032 15.903904877393343
    vertex 971.7999996185288 -31.060999870300318 15.903904877393343
    vertex 968.7999996185287 -28.06099987030032 12.903906004728642
  endloop
endfacet
facet normal -1.0 0.0 0.0
  outer loop
    vertex 922.9999996185288 -31.06099987030033 25.90390600472863
    vertex 922.9999996185288 -28.06099987030033 -0.49608895984041096
    vertex 922.9999996185288 -31.06099987030033 -0.49608895984041096
  endloop
endfacet
facet normal -1.0 0.0 0.0
  outer loop
    vertex 922.9999996185288 -28.06099987030033 -0.49608895984041096
    vertex 922.9999996185288 -31.06099987030033 25.90390600472863
    vertex 922.9999996185288 -28.06099987030033 25.90390600472863
  endloop
endfacet
facet normal 0.0 0.0 1.0
  outer loop
    vertex 971.7999996185288 -28.06099987030032 25.90390600472863
    vertex 922.9999996185288 -31.06099987030033 25.90390600472863
    vertex 971.7999996185288 -31.06099987030032 25.90390600472863
  endloop
endfacet
facet normal 0.0 0.0 1.0
  outer loop
    vertex 922.9999996185288 -31.06099987030033 25.90390600472863
    vertex 971.7999996185288 -28.06099987030032 25.90390600472863
    vertex 922.9999996185288 -28.06099987030033 25.90390600472863
  endloop
endfacet
facet normal 1.0 0.0 0.0
  outer loop
    vertex 971.7999996185288 -28.06099987030032 25.90390600472863
    vertex 971.7999996185288 -31.060999870300318 15.903904877393343
    vertex 971.7999996185288 -28.06099987030032 15.903904877393343
  endloop
endfacet
facet normal 1.0 0.0 0.0
  outer loop
    vertex 971.7999996185288 -31.060999870300318 15.903904877393343
    vertex 971.7999996185288 -28.06099987030032 25.90390600472863
    vertex 971.7999996185288 -31.06099987030032 25.90390600472863
  endloop
endfacet
endsolid Pegboard
